<svg width="197" height="59" viewBox="0 0 197 59" fill="none" xmlns="http://www.w3.org/2000/svg">
<rect width="197" height="59" rx="5" fill="black"/>
<path d="M49.018 30.5851C49.0349 29.2771 49.3823 27.9946 50.028 26.8569C50.6737 25.7192 51.5967 24.7634 52.7111 24.0783C52.0031 23.0672 51.0692 22.2351 49.9835 21.6482C48.8977 21.0612 47.69 20.7355 46.4564 20.6969C43.8248 20.4206 41.2735 22.2716 39.9325 22.2716C38.5655 22.2716 36.5008 20.7243 34.2775 20.77C32.8394 20.8165 31.4378 21.2347 30.2093 21.9839C28.9809 22.7331 27.9675 23.7877 27.2678 25.045C24.2369 30.2924 26.4977 38.0044 29.401 42.2461C30.8536 44.3231 32.5512 46.6431 34.7726 46.5609C36.9463 46.4707 37.7581 45.1748 40.382 45.1748C42.9815 45.1748 43.7432 46.5609 46.0096 46.5086C48.3421 46.4707 49.8117 44.4223 51.2133 42.3256C52.257 40.8457 53.0601 39.21 53.5929 37.4792C52.2378 36.9061 51.0813 35.9467 50.2678 34.7208C49.4543 33.4948 49.0196 32.0565 49.018 30.5851Z" fill="white"/>
<path d="M44.7372 17.9073C46.009 16.3806 46.6355 14.4182 46.4838 12.437C44.5408 12.6411 42.746 13.5697 41.4571 15.0379C40.8268 15.7551 40.3442 16.5895 40.0366 17.4934C39.7291 18.3972 39.6027 19.3529 39.6647 20.3056C40.6366 20.3156 41.598 20.105 42.4766 19.6896C43.3553 19.2741 44.1282 18.6647 44.7372 17.9073Z" fill="white"/>
<path d="M73.0616 21.6724H70.4718V13.6724H73.1437C73.9275 13.6724 74.6007 13.8326 75.1632 14.1529C75.7257 14.4706 76.1567 14.9276 76.4562 15.524C76.7582 16.1177 76.9093 16.83 76.9093 17.6607C76.9093 18.494 76.7569 19.2102 76.4523 19.8091C76.1502 20.4081 75.7127 20.869 75.1398 21.192C74.5668 21.5123 73.8741 21.6724 73.0616 21.6724ZM71.6788 20.6177H72.9952C73.6046 20.6177 74.1111 20.5032 74.5148 20.274C74.9184 20.0422 75.2205 19.7076 75.421 19.2701C75.6215 18.83 75.7218 18.2935 75.7218 17.6607C75.7218 17.0331 75.6215 16.5005 75.421 16.063C75.2231 15.6255 74.9275 15.2935 74.5343 15.067C74.1411 14.8404 73.6528 14.7271 73.0694 14.7271H71.6788V20.6177ZM78.3165 21.6724V15.6724H79.4845V21.6724H78.3165ZM78.9064 14.7466C78.7032 14.7466 78.5288 14.6789 78.3829 14.5435C78.2397 14.4055 78.1681 14.2414 78.1681 14.0513C78.1681 13.8586 78.2397 13.6946 78.3829 13.5591C78.5288 13.4211 78.7032 13.3521 78.9064 13.3521C79.1095 13.3521 79.2827 13.4211 79.4259 13.5591C79.5717 13.6946 79.6446 13.8586 79.6446 14.0513C79.6446 14.2414 79.5717 14.4055 79.4259 14.5435C79.2827 14.6789 79.1095 14.7466 78.9064 14.7466ZM85.5519 17.1373L84.4933 17.3248C84.449 17.1894 84.3787 17.0604 84.2823 16.938C84.1886 16.8157 84.061 16.7154 83.8995 16.6373C83.7381 16.5591 83.5362 16.5201 83.2941 16.5201C82.9633 16.5201 82.6873 16.5943 82.4659 16.7427C82.2446 16.8886 82.1339 17.0774 82.1339 17.3091C82.1339 17.5097 82.2081 17.6711 82.3566 17.7935C82.505 17.9159 82.7446 18.0162 83.0753 18.0943L84.0284 18.313C84.5805 18.4407 84.992 18.6373 85.2628 18.9029C85.5336 19.1685 85.6691 19.5136 85.6691 19.938C85.6691 20.2974 85.5649 20.6177 85.3566 20.899C85.1508 21.1776 84.8631 21.3964 84.4933 21.5552C84.1261 21.7141 83.7003 21.7935 83.2159 21.7935C82.5441 21.7935 81.9959 21.6503 81.5714 21.3638C81.1469 21.0748 80.8865 20.6646 80.7901 20.1334L81.9191 19.9615C81.9894 20.2558 82.1339 20.4784 82.3526 20.6295C82.5714 20.7779 82.8566 20.8521 83.2081 20.8521C83.5909 20.8521 83.8969 20.7727 84.1261 20.6138C84.3553 20.4524 84.4698 20.2558 84.4698 20.024C84.4698 19.8365 84.3995 19.6789 84.2589 19.5513C84.1209 19.4237 83.9086 19.3274 83.6222 19.2623L82.6066 19.0396C82.0467 18.912 81.6326 18.7089 81.3644 18.4302C81.0987 18.1516 80.9659 17.7987 80.9659 17.3716C80.9659 17.0175 81.0649 16.7076 81.2628 16.442C81.4607 16.1763 81.7342 15.9693 82.0831 15.8209C82.4321 15.6698 82.8318 15.5943 83.2823 15.5943C83.9308 15.5943 84.4412 15.7349 84.8136 16.0162C85.186 16.2948 85.4321 16.6685 85.5519 17.1373ZM86.9532 23.9224V15.6724H88.0939V16.6451H88.1915C88.2592 16.5201 88.3569 16.3755 88.4845 16.2115C88.6121 16.0474 88.7892 15.9042 89.0157 15.7818C89.2423 15.6568 89.5418 15.5943 89.9142 15.5943C90.3985 15.5943 90.8308 15.7167 91.211 15.9615C91.5913 16.2063 91.8894 16.5591 92.1056 17.0201C92.3243 17.481 92.4337 18.0357 92.4337 18.6841C92.4337 19.3326 92.3256 19.8886 92.1095 20.3521C91.8933 20.813 91.5965 21.1685 91.2189 21.4185C90.8413 21.6659 90.4103 21.7896 89.9259 21.7896C89.5613 21.7896 89.2631 21.7284 89.0314 21.606C88.8022 21.4836 88.6225 21.3404 88.4923 21.1763C88.3621 21.0123 88.2618 20.8664 88.1915 20.7388H88.1212V23.9224H86.9532ZM88.0978 18.6724C88.0978 19.0943 88.159 19.4641 88.2814 19.7818C88.4038 20.0995 88.5808 20.3482 88.8126 20.5279C89.0444 20.705 89.3282 20.7935 89.6642 20.7935C90.0131 20.7935 90.3048 20.7011 90.5392 20.5162C90.7735 20.3287 90.9506 20.0748 91.0704 19.7545C91.1928 19.4341 91.254 19.0735 91.254 18.6724C91.254 18.2766 91.1941 17.9211 91.0743 17.606C90.9571 17.2909 90.7801 17.0422 90.5431 16.8599C90.3087 16.6776 90.0157 16.5865 89.6642 16.5865C89.3256 16.5865 89.0392 16.6737 88.8048 16.8482C88.573 17.0227 88.3972 17.2662 88.2775 17.5787C88.1577 17.8912 88.0978 18.2558 88.0978 18.6724ZM96.2696 21.7935C95.7071 21.7935 95.2163 21.6646 94.797 21.4068C94.3777 21.149 94.0522 20.7883 93.8204 20.3248C93.5886 19.8612 93.4728 19.3196 93.4728 18.6998C93.4728 18.0774 93.5886 17.5331 93.8204 17.067C94.0522 16.6008 94.3777 16.2388 94.797 15.981C95.2163 15.7232 95.7071 15.5943 96.2696 15.5943C96.8321 15.5943 97.323 15.7232 97.7423 15.981C98.1616 16.2388 98.4871 16.6008 98.7189 17.067C98.9506 17.5331 99.0665 18.0774 99.0665 18.6998C99.0665 19.3196 98.9506 19.8612 98.7189 20.3248C98.4871 20.7883 98.1616 21.149 97.7423 21.4068C97.323 21.6646 96.8321 21.7935 96.2696 21.7935ZM96.2735 20.813C96.6381 20.813 96.9402 20.7167 97.1798 20.524C97.4194 20.3313 97.5965 20.0748 97.711 19.7545C97.8282 19.4341 97.8868 19.0813 97.8868 18.6959C97.8868 18.313 97.8282 17.9615 97.711 17.6412C97.5965 17.3183 97.4194 17.0591 97.1798 16.8638C96.9402 16.6685 96.6381 16.5709 96.2735 16.5709C95.9064 16.5709 95.6017 16.6685 95.3595 16.8638C95.1199 17.0591 94.9415 17.3183 94.8243 17.6412C94.7097 17.9615 94.6525 18.313 94.6525 18.6959C94.6525 19.0813 94.7097 19.4341 94.8243 19.7545C94.9415 20.0748 95.1199 20.3313 95.3595 20.524C95.6017 20.7167 95.9064 20.813 96.2735 20.813ZM101.538 18.1099V21.6724H100.37V15.6724H101.491V16.649H101.566C101.704 16.3313 101.92 16.0761 102.214 15.8834C102.511 15.6907 102.885 15.5943 103.335 15.5943C103.744 15.5943 104.102 15.6802 104.409 15.8521C104.717 16.0214 104.955 16.274 105.124 16.6099C105.293 16.9459 105.378 17.3612 105.378 17.856V21.6724H104.21V17.9966C104.21 17.5617 104.097 17.2219 103.87 16.9771C103.644 16.7297 103.332 16.606 102.937 16.606C102.666 16.606 102.425 16.6646 102.214 16.7818C102.006 16.899 101.84 17.0709 101.718 17.2974C101.598 17.5214 101.538 17.7922 101.538 18.1099ZM106.944 21.6724V15.6724H108.112V21.6724H106.944ZM107.054 14.8716L107.968 13.0709H109.198L107.987 14.8716H107.054ZM114.817 15.6724L112.641 21.6724H111.391L109.211 15.6724H110.465L111.984 20.2896H112.047L113.563 15.6724H114.817ZM118.296 21.7935C117.705 21.7935 117.196 21.6672 116.769 21.4146C116.344 21.1594 116.016 20.8013 115.784 20.3404C115.555 19.8769 115.441 19.3339 115.441 18.7115C115.441 18.0969 115.555 17.5552 115.784 17.0865C116.016 16.6177 116.339 16.2519 116.753 15.9888C117.17 15.7258 117.657 15.5943 118.214 15.5943C118.553 15.5943 118.881 15.6503 119.198 15.7623C119.516 15.8742 119.801 16.05 120.054 16.2896C120.306 16.5292 120.506 16.8404 120.651 17.2232C120.797 17.6034 120.87 18.0657 120.87 18.6099V19.024H116.101V18.149H119.726C119.726 17.8417 119.663 17.5696 119.538 17.3326C119.413 17.093 119.237 16.9042 119.011 16.7662C118.787 16.6282 118.524 16.5591 118.222 16.5591C117.894 16.5591 117.607 16.6399 117.362 16.8013C117.12 16.9602 116.933 17.1685 116.8 17.4263C116.67 17.6815 116.605 17.9589 116.605 18.2584V18.942C116.605 19.343 116.675 19.6841 116.816 19.9654C116.959 20.2466 117.158 20.4615 117.413 20.6099C117.668 20.7558 117.967 20.8287 118.308 20.8287C118.529 20.8287 118.731 20.7974 118.913 20.7349C119.095 20.6698 119.253 20.5735 119.386 20.4459C119.519 20.3183 119.62 20.1607 119.691 19.9732L120.796 20.1724C120.707 20.4979 120.549 20.7831 120.319 21.0279C120.093 21.2701 119.808 21.4589 119.464 21.5943C119.123 21.7271 118.734 21.7935 118.296 21.7935ZM123.334 13.6724V21.6724H122.166V13.6724H123.334ZM128.984 18.1099V21.6724H127.817V15.6724H128.938V16.649H129.012C129.15 16.3313 129.366 16.0761 129.66 15.8834C129.957 15.6907 130.331 15.5943 130.781 15.5943C131.19 15.5943 131.548 15.6802 131.856 15.8521C132.163 16.0214 132.401 16.274 132.57 16.6099C132.74 16.9459 132.824 17.3612 132.824 17.856V21.6724H131.656V17.9966C131.656 17.5617 131.543 17.2219 131.317 16.9771C131.09 16.7297 130.779 16.606 130.383 16.606C130.112 16.606 129.871 16.6646 129.66 16.7818C129.452 16.899 129.287 17.0709 129.164 17.2974C129.044 17.5214 128.984 17.7922 128.984 18.1099ZM136.137 21.8052C135.757 21.8052 135.413 21.7349 135.106 21.5943C134.798 21.4511 134.555 21.244 134.375 20.9732C134.198 20.7024 134.109 20.3703 134.109 19.9771C134.109 19.6386 134.175 19.3599 134.305 19.1412C134.435 18.9224 134.611 18.7492 134.832 18.6216C135.053 18.494 135.301 18.3977 135.574 18.3326C135.848 18.2675 136.126 18.218 136.41 18.1841C136.77 18.1425 137.061 18.1086 137.285 18.0826C137.509 18.0539 137.672 18.0084 137.774 17.9459C137.875 17.8834 137.926 17.7818 137.926 17.6412V17.6138C137.926 17.2727 137.83 17.0084 137.637 16.8209C137.447 16.6334 137.163 16.5396 136.785 16.5396C136.392 16.5396 136.082 16.6269 135.856 16.8013C135.632 16.9732 135.477 17.1646 135.391 17.3755L134.293 17.1255C134.423 16.761 134.613 16.4667 134.863 16.2427C135.116 16.0162 135.406 15.8521 135.734 15.7505C136.063 15.6464 136.408 15.5943 136.77 15.5943C137.009 15.5943 137.263 15.6229 137.531 15.6802C137.802 15.7349 138.055 15.8365 138.289 15.9849C138.526 16.1334 138.72 16.3456 138.871 16.6216C139.022 16.8951 139.098 17.2505 139.098 17.688V21.6724H137.957V20.8521H137.91C137.835 21.0032 137.721 21.1516 137.57 21.2974C137.419 21.4433 137.225 21.5644 136.988 21.6607C136.751 21.7571 136.468 21.8052 136.137 21.8052ZM136.391 20.8677C136.714 20.8677 136.99 20.8039 137.219 20.6763C137.451 20.5487 137.626 20.3821 137.746 20.1763C137.869 19.968 137.93 19.7453 137.93 19.5084V18.7349C137.888 18.7766 137.807 18.8157 137.688 18.8521C137.57 18.886 137.436 18.9159 137.285 18.942C137.134 18.9654 136.987 18.9875 136.844 19.0084C136.701 19.0266 136.581 19.0422 136.484 19.0552C136.258 19.0839 136.051 19.1321 135.863 19.1998C135.678 19.2675 135.53 19.3651 135.418 19.4927C135.309 19.6177 135.254 19.7844 135.254 19.9927C135.254 20.2818 135.361 20.5005 135.574 20.649C135.788 20.7948 136.06 20.8677 136.391 20.8677Z" fill="white"/>
<path d="M80.25 39.9286H73.8444L72.3061 44.367H69.5929L75.6602 27.9461H78.4791L84.5464 44.367H81.787L80.25 39.9286ZM74.5078 37.8805H79.5853L77.0823 30.6773H77.0122L74.5078 37.8805Z" fill="white"/>
<path d="M97.6498 38.3815C97.6498 42.1019 95.6119 44.4922 92.5367 44.4922C91.7576 44.532 90.9829 44.3566 90.3011 43.9862C89.6193 43.6158 89.0581 43.0652 88.6816 42.3976H88.6234V48.3275H86.1085V32.3948H88.5429V34.3861H88.5891C88.9829 33.7216 89.5536 33.1739 90.2406 32.8012C90.9275 32.4285 91.7051 32.2448 92.4904 32.2695C95.6 32.2696 97.6498 34.6715 97.6498 38.3815ZM95.0648 38.3815C95.0648 35.9577 93.7829 34.3641 91.827 34.3641C89.9054 34.3641 88.6129 35.9912 88.6129 38.3815C88.6129 40.7938 89.9054 42.4092 91.827 42.4092C93.7829 42.4092 95.0648 40.8273 95.0648 38.3815Z" fill="white"/>
<path d="M111.135 38.3816C111.135 42.102 109.097 44.4923 106.022 44.4923C105.243 44.5321 104.468 44.3568 103.786 43.9863C103.105 43.6159 102.543 43.0653 102.167 42.3977H102.109V48.3276H99.5938V32.3949H102.028V34.3862H102.074C102.468 33.7217 103.039 33.174 103.726 32.8014C104.413 32.4287 105.19 32.2449 105.976 32.2697C109.085 32.2697 111.135 34.6716 111.135 38.3816ZM108.55 38.3816C108.55 35.9578 107.268 34.3642 105.312 34.3642C103.391 34.3642 102.098 35.9913 102.098 38.3816C102.098 40.7939 103.391 42.4093 105.312 42.4093C107.268 42.4093 108.55 40.8274 108.55 38.3816H108.55Z" fill="white"/>
<path d="M120.048 39.7918C120.234 41.4201 121.853 42.4893 124.065 42.4893C126.185 42.4893 127.71 41.4201 127.71 39.9518C127.71 38.6773 126.79 37.9141 124.612 37.3911L122.435 36.8784C119.349 36.1501 117.916 34.7399 117.916 32.4517C117.916 29.6184 120.443 27.6724 124.031 27.6724C127.582 27.6724 130.016 29.6184 130.098 32.4517H127.56C127.408 30.8129 126.021 29.8238 123.995 29.8238C121.969 29.8238 120.583 30.8246 120.583 32.2812C120.583 33.4421 121.468 34.1252 123.635 34.6482L125.486 35.0924C128.934 35.8892 130.367 37.2426 130.367 39.6444C130.367 42.7165 127.862 44.6407 123.879 44.6407C120.152 44.6407 117.636 42.7617 117.473 39.7916L120.048 39.7918Z" fill="white"/>
<path d="M135.794 29.5616V32.3949H138.124V34.3409H135.794V40.941C135.794 41.9664 136.261 42.4442 137.285 42.4442C137.562 42.4394 137.838 42.4205 138.112 42.3873V44.3217C137.652 44.4058 137.184 44.4439 136.715 44.4354C134.235 44.4354 133.267 43.525 133.267 41.2031V34.3409H131.486V32.3949H133.267V29.5616H135.794Z" fill="white"/>
<path d="M139.474 38.3815C139.474 34.6147 141.744 32.2476 145.285 32.2476C148.837 32.2476 151.097 34.6146 151.097 38.3815C151.097 42.1587 148.849 44.5154 145.285 44.5154C141.722 44.5154 139.474 42.1587 139.474 38.3815ZM148.534 38.3815C148.534 35.7975 147.322 34.2725 145.285 34.2725C143.247 34.2725 142.036 35.8092 142.036 38.3815C142.036 40.9758 143.247 42.4893 145.285 42.4893C147.322 42.4893 148.534 40.9758 148.534 38.3815H148.534Z" fill="white"/>
<path d="M153.17 32.3948H155.569V34.4325H155.627C155.789 33.7961 156.171 33.2337 156.708 32.8398C157.244 32.4459 157.904 32.2445 158.574 32.2695C158.864 32.2685 159.153 32.2993 159.436 32.3612V34.6598C159.07 34.5506 158.688 34.5004 158.306 34.5113C157.941 34.4968 157.576 34.5598 157.238 34.6958C156.9 34.8319 156.596 35.0378 156.347 35.2995C156.098 35.5612 155.91 35.8724 155.796 36.2118C155.682 36.5512 155.644 36.9108 155.685 37.2658V44.3669H153.17L153.17 32.3948Z" fill="white"/>
<path d="M171.031 40.8506C170.693 43.0239 168.527 44.5154 165.756 44.5154C162.191 44.5154 159.979 42.182 159.979 38.4383C159.979 34.6831 162.203 32.2476 165.65 32.2476C169.04 32.2476 171.171 34.523 171.171 38.153V38.9949H162.518V39.1434C162.478 39.584 162.534 40.0279 162.683 40.4455C162.833 40.8632 163.071 41.2451 163.383 41.5658C163.694 41.8865 164.072 42.1388 164.492 42.3058C164.911 42.4728 165.361 42.5508 165.814 42.5345C166.408 42.5889 167.005 42.4544 167.514 42.151C168.024 41.8476 168.42 41.3915 168.643 40.8506L171.031 40.8506ZM162.53 37.2774H168.655C168.678 36.8813 168.616 36.4848 168.475 36.113C168.333 35.7411 168.114 35.4019 167.832 35.1165C167.55 34.8312 167.21 34.606 166.835 34.455C166.459 34.3039 166.056 34.2304 165.65 34.2389C165.24 34.2365 164.834 34.3134 164.455 34.4651C164.076 34.6168 163.732 34.8404 163.442 35.1229C163.152 35.4054 162.922 35.7412 162.765 36.111C162.609 36.4808 162.529 36.8772 162.53 37.2774V37.2774Z" fill="white"/>
</svg>
