<svg width="197" height="59" viewBox="0 0 197 59" fill="none" xmlns="http://www.w3.org/2000/svg">
<rect width="197" height="59" rx="5" fill="black"/>
<path d="M34.331 28.8708L22.7203 41.1936C22.7214 41.1958 22.7214 41.1991 22.7225 41.2013C23.0791 42.5393 24.3004 43.524 25.7508 43.524C26.331 43.524 26.8751 43.367 27.3419 43.0922L27.3789 43.0704L40.4476 35.5295L34.331 28.8708Z" fill="#EA4335"/>
<path d="M46.0768 26.7725L46.0659 26.7648L40.4236 23.4944L34.067 29.1509L40.4465 35.5282L46.0582 32.2905C47.0419 31.7583 47.7104 30.7212 47.7104 29.526C47.7104 28.3374 47.0517 27.3057 46.0768 26.7725Z" fill="#FBBC04"/>
<path d="M22.7201 17.8054C22.6503 18.0627 22.6132 18.3332 22.6132 18.6124V40.3877C22.6132 40.6669 22.6503 40.9373 22.7212 41.1936L34.7299 29.186L22.7201 17.8054Z" fill="#4285F4"/>
<path d="M34.4167 29.4999L40.4254 23.4922L27.372 15.9241C26.8976 15.6395 26.3437 15.4759 25.7515 15.4759C24.3011 15.4759 23.0776 16.4628 22.721 17.802C22.721 17.803 22.7199 17.8041 22.7199 17.8052L34.4167 29.4999Z" fill="#34A853"/>
<path d="M67.1791 20.8842H64.5893V12.8842H67.2611C68.045 12.8842 68.7182 13.0443 69.2807 13.3646C69.8432 13.6823 70.2742 14.1394 70.5736 14.7357C70.8757 15.3295 71.0268 16.0417 71.0268 16.8724C71.0268 17.7058 70.8744 18.4219 70.5697 19.0209C70.2676 19.6198 69.8301 20.0808 69.2572 20.4037C68.6843 20.724 67.9916 20.8842 67.1791 20.8842ZM65.7963 19.8295H67.1127C67.7221 19.8295 68.2286 19.7149 68.6322 19.4857C69.0359 19.2539 69.338 18.9193 69.5385 18.4818C69.739 18.0417 69.8393 17.5052 69.8393 16.8724C69.8393 16.2448 69.739 15.7123 69.5385 15.2748C69.3406 14.8373 69.045 14.5052 68.6518 14.2787C68.2585 14.0521 67.7703 13.9388 67.1869 13.9388H65.7963V19.8295ZM72.434 20.8842V14.8842H73.602V20.8842H72.434ZM73.0238 13.9584C72.8207 13.9584 72.6462 13.8907 72.5004 13.7552C72.3572 13.6172 72.2856 13.4532 72.2856 13.2631C72.2856 13.0704 72.3572 12.9063 72.5004 12.7709C72.6462 12.6329 72.8207 12.5638 73.0238 12.5638C73.227 12.5638 73.4001 12.6329 73.5434 12.7709C73.6892 12.9063 73.7621 13.0704 73.7621 13.2631C73.7621 13.4532 73.6892 13.6172 73.5434 13.7552C73.4001 13.8907 73.227 13.9584 73.0238 13.9584ZM79.6693 16.349L78.6107 16.5365C78.5665 16.4011 78.4962 16.2722 78.3998 16.1498C78.3061 16.0274 78.1785 15.9271 78.017 15.849C77.8555 15.7709 77.6537 15.7318 77.4115 15.7318C77.0808 15.7318 76.8048 15.806 76.5834 15.9545C76.3621 16.1003 76.2514 16.2891 76.2514 16.5209C76.2514 16.7214 76.3256 16.8829 76.474 17.0052C76.6225 17.1276 76.8621 17.2279 77.1928 17.306L78.1459 17.5248C78.698 17.6524 79.1094 17.849 79.3803 18.1146C79.6511 18.3802 79.7865 18.7253 79.7865 19.1498C79.7865 19.5092 79.6824 19.8295 79.474 20.1107C79.2683 20.3894 78.9805 20.6081 78.6107 20.767C78.2436 20.9258 77.8178 21.0052 77.3334 21.0052C76.6615 21.0052 76.1134 20.862 75.6889 20.5756C75.2644 20.2865 75.004 19.8763 74.9076 19.3451L76.0365 19.1732C76.1068 19.4675 76.2514 19.6901 76.4701 19.8412C76.6889 19.9896 76.974 20.0638 77.3256 20.0638C77.7084 20.0638 78.0144 19.9844 78.2436 19.8256C78.4727 19.6641 78.5873 19.4675 78.5873 19.2357C78.5873 19.0482 78.517 18.8907 78.3764 18.7631C78.2384 18.6355 78.0261 18.5391 77.7397 18.474L76.724 18.2513C76.1641 18.1237 75.7501 17.9206 75.4818 17.642C75.2162 17.3633 75.0834 17.0105 75.0834 16.5834C75.0834 16.2292 75.1824 15.9193 75.3803 15.6537C75.5782 15.3881 75.8516 15.181 76.2006 15.0326C76.5496 14.8816 76.9493 14.806 77.3998 14.806C78.0482 14.806 78.5587 14.9467 78.9311 15.2279C79.3035 15.5066 79.5496 15.8802 79.6693 16.349ZM81.0707 23.1342V14.8842H82.2113V15.8568H82.309C82.3767 15.7318 82.4744 15.5873 82.602 15.4232C82.7296 15.2592 82.9066 15.1159 83.1332 14.9935C83.3598 14.8685 83.6593 14.806 84.0316 14.806C84.516 14.806 84.9483 14.9284 85.3285 15.1732C85.7087 15.418 86.0069 15.7709 86.2231 16.2318C86.4418 16.6927 86.5512 17.2474 86.5512 17.8959C86.5512 18.5443 86.4431 19.1003 86.227 19.5638C86.0108 20.0248 85.7139 20.3802 85.3363 20.6302C84.9587 20.8776 84.5277 21.0013 84.0434 21.0013C83.6788 21.0013 83.3806 20.9401 83.1488 20.8177C82.9197 20.6954 82.74 20.5521 82.6098 20.3881C82.4796 20.224 82.3793 20.0782 82.309 19.9506H82.2387V23.1342H81.0707ZM82.2152 17.8842C82.2152 18.306 82.2764 18.6758 82.3988 18.9935C82.5212 19.3112 82.6983 19.5599 82.9301 19.7396C83.1619 19.9167 83.4457 20.0052 83.7816 20.0052C84.1306 20.0052 84.4223 19.9128 84.6566 19.7279C84.891 19.5404 85.0681 19.2865 85.1879 18.9662C85.3103 18.6459 85.3715 18.2852 85.3715 17.8842C85.3715 17.4883 85.3116 17.1329 85.1918 16.8177C85.0746 16.5026 84.8975 16.2539 84.6606 16.0717C84.4262 15.8894 84.1332 15.7982 83.7816 15.7982C83.4431 15.7982 83.1566 15.8855 82.9223 16.0599C82.6905 16.2344 82.5147 16.4779 82.3949 16.7904C82.2751 17.1029 82.2152 17.4675 82.2152 17.8842ZM90.3871 21.0052C89.8246 21.0052 89.3337 20.8763 88.9145 20.6185C88.4952 20.3607 88.1697 20 87.9379 19.5365C87.7061 19.073 87.5902 18.5313 87.5902 17.9115C87.5902 17.2891 87.7061 16.7448 87.9379 16.2787C88.1697 15.8125 88.4952 15.4506 88.9145 15.1927C89.3337 14.9349 89.8246 14.806 90.3871 14.806C90.9496 14.806 91.4405 14.9349 91.8598 15.1927C92.279 15.4506 92.6046 15.8125 92.8363 16.2787C93.0681 16.7448 93.184 17.2891 93.184 17.9115C93.184 18.5313 93.0681 19.073 92.8363 19.5365C92.6046 20 92.279 20.3607 91.8598 20.6185C91.4405 20.8763 90.9496 21.0052 90.3871 21.0052ZM90.391 20.0248C90.7556 20.0248 91.0577 19.9284 91.2973 19.7357C91.5369 19.543 91.7139 19.2865 91.8285 18.9662C91.9457 18.6459 92.0043 18.293 92.0043 17.9076C92.0043 17.5248 91.9457 17.1732 91.8285 16.8529C91.7139 16.53 91.5369 16.2709 91.2973 16.0756C91.0577 15.8802 90.7556 15.7826 90.391 15.7826C90.0238 15.7826 89.7191 15.8802 89.477 16.0756C89.2374 16.2709 89.059 16.53 88.9418 16.8529C88.8272 17.1732 88.7699 17.5248 88.7699 17.9076C88.7699 18.293 88.8272 18.6459 88.9418 18.9662C89.059 19.2865 89.2374 19.543 89.477 19.7357C89.7191 19.9284 90.0238 20.0248 90.391 20.0248ZM95.6557 17.3217V20.8842H94.4877V14.8842H95.6088V15.8607H95.683C95.821 15.543 96.0372 15.2878 96.3315 15.0951C96.6283 14.9024 97.002 14.806 97.4525 14.806C97.8614 14.806 98.2195 14.892 98.5268 15.0638C98.8341 15.2331 99.0723 15.4857 99.2416 15.8217C99.4109 16.1576 99.4955 16.573 99.4955 17.0677V20.8842H98.3275V17.2084C98.3275 16.7735 98.2143 16.4336 97.9877 16.1888C97.7611 15.9414 97.4499 15.8177 97.0541 15.8177C96.7833 15.8177 96.5424 15.8763 96.3315 15.9935C96.1231 16.1107 95.9578 16.2826 95.8354 16.5092C95.7156 16.7331 95.6557 17.0039 95.6557 17.3217ZM101.062 20.8842V14.8842H102.23V20.8842H101.062ZM101.171 14.0834L102.085 12.2826H103.316L102.105 14.0834H101.171ZM108.934 14.8842L106.758 20.8842H105.508L103.329 14.8842H104.582L106.102 19.5013H106.164L107.68 14.8842H108.934ZM112.413 21.0052C111.822 21.0052 111.313 20.8789 110.886 20.6263C110.462 20.3711 110.134 20.0131 109.902 19.5521C109.673 19.0886 109.558 18.5456 109.558 17.9232C109.558 17.3086 109.673 16.767 109.902 16.2982C110.134 15.8295 110.456 15.4636 110.871 15.2006C111.287 14.9375 111.774 14.806 112.331 14.806C112.67 14.806 112.998 14.862 113.316 14.974C113.634 15.086 113.919 15.2618 114.171 15.5013C114.424 15.7409 114.623 16.0521 114.769 16.4349C114.915 16.8151 114.988 17.2774 114.988 17.8217V18.2357H110.218V17.3607H113.843C113.843 17.0534 113.781 16.7813 113.656 16.5443C113.531 16.3047 113.355 16.1159 113.128 15.9779C112.904 15.8399 112.641 15.7709 112.339 15.7709C112.011 15.7709 111.725 15.8516 111.48 16.0131C111.238 16.1719 111.05 16.3802 110.917 16.6381C110.787 16.8933 110.722 17.1706 110.722 17.4701V18.1537C110.722 18.5547 110.792 18.8959 110.933 19.1771C111.076 19.4584 111.275 19.6732 111.531 19.8217C111.786 19.9675 112.084 20.0404 112.425 20.0404C112.647 20.0404 112.848 20.0092 113.031 19.9467C113.213 19.8816 113.371 19.7852 113.503 19.6576C113.636 19.53 113.738 19.3724 113.808 19.1849L114.913 19.3842C114.825 19.7097 114.666 19.9948 114.437 20.2396C114.21 20.4818 113.925 20.6706 113.581 20.806C113.24 20.9388 112.851 21.0052 112.413 21.0052ZM117.452 12.8842V20.8842H116.284V12.8842H117.452ZM123.102 17.3217V20.8842H121.934V14.8842H123.055V15.8607H123.129C123.267 15.543 123.483 15.2878 123.778 15.0951C124.075 14.9024 124.448 14.806 124.899 14.806C125.308 14.806 125.666 14.892 125.973 15.0638C126.28 15.2331 126.519 15.4857 126.688 15.8217C126.857 16.1576 126.942 16.573 126.942 17.0677V20.8842H125.774V17.2084C125.774 16.7735 125.661 16.4336 125.434 16.1888C125.207 15.9414 124.896 15.8177 124.5 15.8177C124.23 15.8177 123.989 15.8763 123.778 15.9935C123.569 16.1107 123.404 16.2826 123.282 16.5092C123.162 16.7331 123.102 17.0039 123.102 17.3217ZM130.254 21.017C129.874 21.017 129.53 20.9467 129.223 20.806C128.916 20.6628 128.672 20.4558 128.493 20.1849C128.316 19.9141 128.227 19.5821 128.227 19.1888C128.227 18.8503 128.292 18.5717 128.422 18.3529C128.552 18.1342 128.728 17.961 128.95 17.8334C129.171 17.7058 129.418 17.6094 129.692 17.5443C129.965 17.4792 130.244 17.4297 130.528 17.3959C130.887 17.3542 131.179 17.3204 131.403 17.2943C131.627 17.2657 131.789 17.2201 131.891 17.1576C131.993 17.0951 132.043 16.9935 132.043 16.8529V16.8256C132.043 16.4844 131.947 16.2201 131.754 16.0326C131.564 15.8451 131.28 15.7513 130.903 15.7513C130.51 15.7513 130.2 15.8386 129.973 16.0131C129.749 16.1849 129.594 16.3763 129.508 16.5873L128.411 16.3373C128.541 15.9727 128.731 15.6784 128.981 15.4545C129.233 15.2279 129.524 15.0638 129.852 14.9623C130.18 14.8581 130.525 14.806 130.887 14.806C131.127 14.806 131.381 14.8347 131.649 14.892C131.92 14.9467 132.172 15.0482 132.407 15.1967C132.644 15.3451 132.838 15.5573 132.989 15.8334C133.14 16.1068 133.215 16.4623 133.215 16.8998V20.8842H132.075V20.0638H132.028C131.952 20.2149 131.839 20.3633 131.688 20.5092C131.537 20.655 131.343 20.7761 131.106 20.8724C130.869 20.9688 130.585 21.017 130.254 21.017ZM130.508 20.0795C130.831 20.0795 131.107 20.0157 131.336 19.8881C131.568 19.7605 131.744 19.5938 131.864 19.3881C131.986 19.1797 132.047 18.9571 132.047 18.7201V17.9467C132.006 17.9883 131.925 18.0274 131.805 18.0638C131.688 18.0977 131.554 18.1276 131.403 18.1537C131.252 18.1771 131.105 18.1993 130.961 18.2201C130.818 18.2383 130.698 18.2539 130.602 18.267C130.375 18.2956 130.168 18.3438 129.981 18.4115C129.796 18.4792 129.648 18.5769 129.536 18.7045C129.426 18.8295 129.371 18.9961 129.371 19.2045C129.371 19.4935 129.478 19.7123 129.692 19.8607C129.905 20.0066 130.177 20.0795 130.508 20.0795Z" fill="white"/>
<path d="M149.736 43.7945H152.172V27.4742H149.736V43.7945ZM171.678 33.353L168.885 40.4289H168.802L165.904 33.353H163.279L167.626 43.2423L165.149 48.7437H167.688L174.387 33.353H171.678ZM157.863 41.9407C157.064 41.9407 155.952 41.5425 155.952 40.5542C155.952 39.2957 157.337 38.8126 158.534 38.8126C159.604 38.8126 160.11 39.0437 160.76 39.3584C160.571 40.8701 159.269 41.9407 157.863 41.9407ZM158.157 32.9966C156.393 32.9966 154.565 33.7734 153.811 35.4953L155.973 36.3974C156.435 35.4953 157.295 35.2003 158.198 35.2003C159.458 35.2003 160.739 35.9562 160.76 37.3009V37.468C160.319 37.216 159.375 36.8387 158.219 36.8387C155.889 36.8387 153.516 38.1194 153.516 40.5124C153.516 42.6966 155.427 44.1039 157.568 44.1039C159.206 44.1039 160.11 43.3689 160.676 42.5073H160.76V43.7671H163.111V37.5097C163.111 34.6128 160.949 32.9966 158.157 32.9966ZM143.101 35.34H139.637V29.7458H143.101C144.923 29.7458 145.957 31.2537 145.957 32.5423C145.957 33.8073 144.923 35.34 143.101 35.34ZM143.039 27.4742H137.202V43.7945H139.637V37.6116H143.039C145.739 37.6116 148.393 35.6559 148.393 32.5423C148.393 29.4286 145.739 27.4742 143.039 27.4742ZM111.209 41.9433C109.526 41.9433 108.118 40.5346 108.118 38.5998C108.118 36.6442 109.526 35.2133 111.209 35.2133C112.871 35.2133 114.174 36.6442 114.174 38.5998C114.174 40.5346 112.871 41.9433 111.209 41.9433ZM114.007 34.2668H113.922C113.375 33.6154 112.324 33.0266 110.999 33.0266C108.222 33.0266 105.677 35.4653 105.677 38.5998C105.677 41.7122 108.222 44.1313 110.999 44.1313C112.324 44.1313 113.375 43.5425 113.922 42.8689H114.007V43.6692C114.007 45.7932 112.871 46.929 111.041 46.929C109.547 46.929 108.621 45.8559 108.243 44.9512L106.119 45.835C106.728 47.3076 108.349 49.1158 111.041 49.1158C113.901 49.1158 116.32 47.433 116.32 43.3323V33.3621H114.007V34.2668ZM118.003 43.7945H120.443V27.4729H118.003V43.7945ZM124.038 38.4105C123.976 36.2656 125.7 35.1716 126.94 35.1716C127.909 35.1716 128.729 35.6546 129.002 36.3491L124.038 38.4105ZM131.61 36.5593C131.148 35.3191 129.738 33.0266 126.857 33.0266C123.997 33.0266 121.62 35.276 121.62 38.579C121.62 41.6913 123.976 44.1313 127.13 44.1313C129.675 44.1313 131.148 42.5751 131.758 41.6704L129.865 40.408C129.234 41.3336 128.371 41.9433 127.13 41.9433C125.889 41.9433 125.006 41.3754 124.438 40.2618L131.862 37.1899L131.61 36.5593ZM72.4599 34.7303V37.0854H78.0958C77.9274 38.4105 77.4862 39.3779 76.8138 40.0503C75.9927 40.8714 74.7093 41.7762 72.4599 41.7762C68.9886 41.7762 66.2757 38.9784 66.2757 35.5084C66.2757 32.037 68.9886 29.2406 72.4599 29.2406C74.332 29.2406 75.6989 29.9769 76.7081 30.9234L78.37 29.2615C76.96 27.9155 75.0892 26.8841 72.4599 26.8841C67.7065 26.8841 63.7104 30.755 63.7104 35.5084C63.7104 40.2618 67.7065 44.1313 72.4599 44.1313C75.0253 44.1313 76.96 43.2893 78.4744 41.7122C80.0319 40.156 80.515 37.9693 80.515 36.2016C80.515 35.6546 80.4732 35.1507 80.3883 34.7303H72.4599ZM86.9237 41.9433C85.2409 41.9433 83.7892 40.5555 83.7892 38.579C83.7892 36.5802 85.2409 35.2133 86.9237 35.2133C88.6052 35.2133 90.057 36.5802 90.057 38.579C90.057 40.5555 88.6052 41.9433 86.9237 41.9433ZM86.9237 33.0266C83.8519 33.0266 81.3492 35.3609 81.3492 38.579C81.3492 41.7762 83.8519 44.1313 86.9237 44.1313C89.9943 44.1313 92.497 41.7762 92.497 38.579C92.497 35.3609 89.9943 33.0266 86.9237 33.0266ZM99.082 41.9433C97.3992 41.9433 95.9475 40.5555 95.9475 38.579C95.9475 36.5802 97.3992 35.2133 99.082 35.2133C100.765 35.2133 102.215 36.5802 102.215 38.579C102.215 40.5555 100.765 41.9433 99.082 41.9433ZM99.082 33.0266C96.0114 33.0266 93.5088 35.3609 93.5088 38.579C93.5088 41.7762 96.0114 44.1313 99.082 44.1313C102.153 44.1313 104.655 41.7762 104.655 38.579C104.655 35.3609 102.153 33.0266 99.082 33.0266Z" fill="white"/>
</svg>
